<?xml version="1.0" standalone="no"?>
<!DOCTYPE svg PUBLIC "-//W3C//DTD SVG 20010904//EN"
 "http://www.w3.org/TR/2001/REC-SVG-20010904/DTD/svg10.dtd">
<svg version="1.0" xmlns="http://www.w3.org/2000/svg"
 width="630.000000pt" height="231.000000pt" viewBox="0 0 630.000000 231.000000"
 preserveAspectRatio="xMidYMid meet">

<g transform="translate(0.000000,231.000000) scale(0.100000,-0.100000)"
fill="#000000" stroke="none">
<path d="M0 1155 l0 -1155 3150 0 3150 0 0 1155 0 1155 -3150 0 -3150 0 0
-1155z m1368 740 c57 69 65 71 106 26 22 -24 29 -10 -83 -143 -40 -49 -77 -88
-81 -88 -6 0 -99 107 -164 189 l-20 24 35 28 34 29 60 -65 60 -66 53 66z m262
-170 l0 -195 -45 0 -44 0 -3 67 -3 66 -55 -66 -55 -66 -63 0 -64 -1 34 39 c18
22 92 110 163 195 72 85 131 155 133 156 1 0 2 -88 2 -195z m-513 52 l103
-122 -201 -3 c-111 -1 -204 0 -206 2 -3 2 7 25 22 50 l26 45 75 3 75 3 -37 43
-37 43 29 30 c15 16 33 29 38 28 6 0 57 -55 113 -122z m657 17 c45 -56 46 -57
46 -130 l0 -74 45 22 45 22 30 -34 c16 -19 29 -37 30 -40 0 -6 -227 -110 -241
-110 -5 0 -9 85 -9 200 0 110 2 200 4 200 2 0 24 -25 50 -56z m-574 -235 c0
-10 -173 -218 -194 -233 -13 -9 -76 29 -76 45 0 4 16 27 36 51 l37 43 -74 5
-73 5 -23 40 c-13 22 -23 43 -23 48 0 4 88 7 195 7 119 -1 195 -5 195 -11z
m2572 -138 c32 -12 80 -43 109 -69 l52 -46 -34 -29 c-19 -16 -53 -44 -76 -64
l-42 -35 -38 30 c-112 89 -254 45 -289 -89 -25 -95 18 -197 96 -229 51 -21
143 -9 193 27 l43 30 70 -59 c38 -33 68 -64 66 -69 -5 -20 -70 -70 -128 -99
-42 -22 -81 -33 -130 -37 -238 -19 -413 121 -431 344 -16 209 103 375 297 416
55 12 185 0 242 -22z m-2147 10 c-6 -5 -71 -59 -145 -121 l-134 -112 -28 33
c-15 18 -28 36 -28 39 0 4 19 22 43 41 l42 34 -112 5 -112 5 35 43 36 42 206
0 c119 0 202 -4 197 -9z m625 4 c0 -4 -241 -206 -392 -329 l-48 -38 0 60 0 61
87 73 87 73 -85 5 -84 5 -3 48 -3 47 220 0 c122 0 221 -2 221 -5z m535 -199
l120 -204 5 201 5 202 103 3 102 3 0 -376 0 -376 -107 3 -108 3 -120 199 -120
199 -3 -202 -2 -201 -100 0 -100 0 0 375 0 375 103 0 102 0 120 -204z m1686
178 c70 -32 94 -74 94 -159 0 -80 -21 -121 -76 -147 l-31 -15 30 -11 c44 -15
99 -69 113 -109 6 -19 9 -61 7 -93 -5 -76 -40 -129 -105 -161 -45 -23 -61 -24
-260 -27 l-213 -3 0 376 0 377 198 -4 c175 -3 202 -6 243 -24z m659 -31 c12
-32 49 -132 82 -223 33 -91 84 -231 114 -312 30 -81 54 -150 54 -153 0 -3 -47
-5 -104 -5 l-104 0 -19 58 -20 57 -120 3 -120 3 -18 -61 -18 -60 -104 0 c-69
0 -103 4 -103 11 0 6 60 175 132 375 l133 364 97 0 97 0 21 -57z m-3410 -179
l0 -185 -42 25 c-42 25 -43 27 -48 88 l-5 62 -38 -33 c-40 -36 -62 -37 -106
-3 l-23 19 128 106 c71 59 130 107 131 107 2 0 3 -84 3 -186z m-217 -164 c70
-40 127 -74 127 -75 0 -4 -266 -155 -272 -155 -7 0 -42 79 -37 83 2 2 31 19
63 37 65 37 66 32 -18 82 -25 15 -46 31 -46 35 0 15 40 74 48 70 4 -2 64 -37
135 -77z m447 -52 l0 -53 -63 -35 -62 -36 -3 -112 -3 -112 -43 -25 c-23 -14
-46 -25 -50 -25 -3 0 -5 73 -4 162 l3 162 105 63 c58 34 108 63 113 63 4 0 7
-24 7 -52z m-320 -293 l0 -165 -40 -20 c-21 -11 -42 -20 -45 -20 -3 0 -5 48
-5 106 l0 106 -44 -26 c-25 -14 -48 -26 -53 -26 -10 0 -43 53 -43 68 0 8 214
141 228 142 1 0 2 -74 2 -165z"/>
<path d="M4220 1205 l0 -55 58 0 c83 0 113 35 76 88 -13 19 -24 22 -75 22
l-59 0 0 -55z"/>
<path d="M4225 988 c-4 -9 -5 -40 -3 -69 l3 -54 62 1 c76 1 113 22 113 63 0
42 -28 61 -103 68 -54 5 -68 3 -72 -9z"/>
<path d="M4981 1091 c-18 -57 -30 -105 -28 -108 3 -2 32 -3 65 -1 l60 3 -33
104 -32 105 -32 -103z"/>
</g>
</svg>
